<svg width="24" height="24" viewBox="0 0 24 24" fill="none" xmlns="http://www.w3.org/2000/svg">
<path d="M3.04102 21.9543V11.9993C3.04102 10.1222 3.04102 9.18363 3.62416 8.60048C4.20731 8.01733 5.14587 8.01733 7.023 8.01733C8.90012 8.01733 9.83868 8.01733 10.4218 8.60048C11.005 9.18363 11.005 10.1222 11.005 11.9993" stroke="#253978" stroke-width="2"/>
<path d="M16.9784 21.9552V15.9822C16.9784 14.1051 16.9784 13.1665 16.3952 12.5834C15.8121 12.0002 14.8735 12.0002 12.9964 12.0002H11.0054C9.1283 12.0002 8.18973 12.0002 7.60659 12.5834C7.02344 13.1665 7.02344 14.1051 7.02344 15.9822V21.9552" stroke="#253978" stroke-width="2"/>
<path d="M20.9601 21.9559V7.79196C20.9601 6.45716 20.9601 5.78975 20.6055 5.27815C20.251 4.76654 19.6261 4.5322 18.3762 4.06352C15.9321 3.14695 14.71 2.68866 13.853 3.28252C12.9961 3.87637 12.9961 5.18157 12.9961 7.79196V12.0009" stroke="#253978" stroke-width="2"/>
<path d="M4.03711 8.01817V6.52493C4.03711 5.58636 4.03711 5.11708 4.32868 4.82551C4.62026 4.53394 5.08954 4.53394 6.0281 4.53394H8.01909C8.95765 4.53394 9.42694 4.53394 9.71851 4.82551C10.0101 5.11708 10.0101 5.58636 10.0101 6.52493V8.01817" stroke="#253978" stroke-width="2" stroke-linecap="round"/>
<path d="M7.02344 4.03518V2.04419" stroke="#253978" stroke-width="2" stroke-linecap="round"/>
<path d="M21.9568 21.9561L2.04688 21.9561" stroke="#253978" stroke-width="2" stroke-linecap="round"/>
<path d="M10.0098 14.9866H13.9917" stroke="#253978" stroke-width="2" stroke-linecap="round"/>
<path d="M10.0098 17.9731H13.9917" stroke="#253978" stroke-width="2" stroke-linecap="round"/>
</svg>
