<svg width="25" height="24" viewBox="0 0 25 24" fill="none" xmlns="http://www.w3.org/2000/svg">
<path d="M22.4568 21.9561L2.54688 21.9561" stroke="#253978" stroke-width="2" stroke-linecap="round"/>
<path d="M21.4604 21.9541V6.02617C21.4604 4.14905 21.4604 3.21049 20.8772 2.62734C20.2941 2.04419 19.3555 2.04419 17.4784 2.04419H15.4874C13.6103 2.04419 12.6717 2.04419 12.0886 2.62734C11.6192 3.09676 11.5276 3.79648 11.5098 5.03068" stroke="#253978" stroke-width="2"/>
<path d="M15.487 21.9542V9.01274C15.487 7.13562 15.487 6.19706 14.9038 5.61391C14.3207 5.03076 13.3821 5.03076 11.505 5.03076H7.523C5.64587 5.03076 4.70731 5.03076 4.12416 5.61391C3.54102 6.19706 3.54102 7.13562 3.54102 9.01274V21.9542" stroke="#253978" stroke-width="2"/>
<path d="M9.51367 21.956V18.9695" stroke="#253978" stroke-width="2" stroke-linecap="round"/>
<path d="M6.52734 8.01733H12.5003" stroke="#253978" stroke-width="2" stroke-linecap="round"/>
<path d="M6.52734 11.0037H12.5003" stroke="#253978" stroke-width="2" stroke-linecap="round"/>
<path d="M6.52734 13.9902H12.5003" stroke="#253978" stroke-width="2" stroke-linecap="round"/>
</svg>
