<svg width="111" height="94" viewBox="0 0 111 94" fill="none" xmlns="http://www.w3.org/2000/svg">
<path d="M109 107.827C109 166.227 60.4694 213.653 0.5 213.653C-59.4694 213.653 -108 166.227 -108 107.827C-108 49.4261 -59.4694 2 0.5 2C60.4694 2 109 49.4261 109 107.827Z" stroke="#5E7AC4" stroke-width="4"/>
<path d="M81.375 107.827C81.375 151.34 45.2125 186.697 0.500008 186.697C-44.2125 186.697 -80.375 151.34 -80.375 107.827C-80.375 64.3142 -44.2125 28.957 0.500008 28.957C45.2125 28.957 81.375 64.3142 81.375 107.827Z" stroke="#5E7AC4" stroke-width="4"/>
<path d="M53.749 107.827C53.749 136.452 29.9546 159.741 0.499023 159.741C-28.9566 159.741 -52.751 136.452 -52.751 107.827C-52.751 79.2023 -28.9566 55.9141 0.499023 55.9141C29.9546 55.9141 53.749 79.2023 53.749 107.827Z" stroke="#5E7AC4" stroke-width="4"/>
<path d="M26.125 107.826C26.125 121.563 14.6988 132.782 0.5 132.782C-13.6988 132.782 -25.125 121.563 -25.125 107.826C-25.125 94.0885 -13.6988 82.8691 0.5 82.8691C14.6988 82.8691 26.125 94.0885 26.125 107.826Z" stroke="#5E7AC4" stroke-width="4"/>
</svg>
