<svg width="123" height="116" viewBox="0 0 123 116" fill="none" xmlns="http://www.w3.org/2000/svg">
<path d="M219 7.82662C219 66.2272 170.469 113.653 110.5 113.653C50.5306 113.653 2 66.2272 2 7.82662C2 -50.5739 50.5306 -98 110.5 -98C170.469 -98 219 -50.5739 219 7.82662Z" stroke="#5E7AC4" stroke-width="4"/>
<path d="M191.375 7.827C191.375 51.3398 155.213 86.697 110.5 86.697C65.7875 86.697 29.625 51.3398 29.625 7.827C29.625 -35.6858 65.7875 -71.043 110.5 -71.043C155.213 -71.043 191.375 -35.6858 191.375 7.827Z" stroke="#5E7AC4" stroke-width="4"/>
<path d="M163.749 7.82737C163.749 36.4524 139.955 59.7407 110.499 59.7407C81.0434 59.7407 57.249 36.4524 57.249 7.82737C57.249 -20.7977 81.0434 -44.0859 110.499 -44.0859C139.955 -44.0859 163.749 -20.7977 163.749 7.82737Z" stroke="#5E7AC4" stroke-width="4"/>
<path d="M136.125 7.8258C136.125 21.5631 124.699 32.7825 110.5 32.7825C96.3012 32.7825 84.875 21.5631 84.875 7.8258C84.875 -5.91149 96.3012 -17.1309 110.5 -17.1309C124.699 -17.1309 136.125 -5.91149 136.125 7.8258Z" stroke="#5E7AC4" stroke-width="4"/>
</svg>
