<svg width="130" height="109" viewBox="0 0 130 109" fill="none" xmlns="http://www.w3.org/2000/svg">
<path d="M145.882 -142.632C140.959 -158.122 119.041 -158.122 114.118 -142.632C111.193 -133.432 99.4634 -130.755 92.8369 -137.775C81.6805 -149.595 61.9327 -140.085 64.2178 -123.993C65.5751 -114.435 56.1684 -106.933 47.152 -110.383C31.9721 -116.192 18.3062 -99.0555 27.347 -85.5487C32.7169 -77.5262 27.4966 -66.6859 17.8762 -65.8823C1.67933 -64.5294 -3.19797 -43.1605 10.8079 -34.914C19.1269 -30.0159 19.1269 -17.9841 10.8079 -13.086C-3.19797 -4.83946 1.67933 16.5294 17.8762 17.8823C27.4966 18.686 32.7169 29.5262 27.347 37.5487C18.3062 51.0555 31.9721 68.192 47.152 62.3834C56.1683 58.9333 65.5751 66.4349 64.2178 75.9929C61.9327 92.0848 81.6805 101.595 92.8369 89.7751C99.4634 82.7547 111.193 85.432 114.118 94.6323C119.041 110.122 140.959 110.122 145.882 94.6323C148.807 85.432 160.537 82.7547 167.163 89.7751C178.319 101.595 198.067 92.0848 195.782 75.9929C194.425 66.4349 203.832 58.9333 212.848 62.3834C228.028 68.192 241.694 51.0555 232.653 37.5487C227.283 29.5261 232.503 18.686 242.124 17.8823C258.321 16.5294 263.198 -4.83946 249.192 -13.086C240.873 -17.9841 240.873 -30.0159 249.192 -34.914C263.198 -43.1605 258.321 -64.5294 242.124 -65.8823C232.503 -66.6859 227.283 -77.5262 232.653 -85.5487C241.694 -99.0555 228.028 -116.192 212.848 -110.383C203.832 -106.933 194.425 -114.435 195.782 -123.993C198.067 -140.085 178.319 -149.595 167.163 -137.775C160.537 -130.755 148.807 -133.432 145.882 -142.632Z" stroke="#5E7AC4" stroke-width="4"/>
</svg>
