<svg width="97" height="82" viewBox="0 0 97 82" fill="none" xmlns="http://www.w3.org/2000/svg">
<path d="M17.9393 10.3885C14.3934 -0.768021 -1.39336 -0.768021 -4.93929 10.3885C-6.78707 16.2021 -14.1993 17.8939 -18.3865 13.4577C-26.4219 4.94459 -40.6453 11.7942 -38.9994 23.3844C-38.1418 29.424 -44.0859 34.1643 -49.7833 31.9842C-60.7166 27.8006 -70.5595 40.1431 -64.0478 49.8714C-60.6546 54.9408 -63.9533 61.7907 -70.0324 62.2985C-81.6982 63.273 -85.2111 78.6639 -75.1234 84.6035C-69.8666 87.6986 -69.8666 95.3014 -75.1234 98.3965C-85.2111 104.336 -81.6982 119.727 -70.0324 120.701C-63.9533 121.209 -60.6546 128.059 -64.0478 133.129C-70.5595 142.857 -60.7166 155.199 -49.7833 151.016C-44.0859 148.836 -38.1418 153.576 -38.9994 159.616C-40.6453 171.206 -26.4219 178.055 -18.3865 169.542C-14.1993 165.106 -6.78707 166.798 -4.93929 172.612C-1.39336 183.768 14.3934 183.768 17.9393 172.612C19.7871 166.798 27.1993 165.106 31.3865 169.542C39.4219 178.055 53.6453 171.206 51.9994 159.616C51.1418 153.576 57.0859 148.836 62.7833 151.016C73.7166 155.199 83.5595 142.857 77.0478 133.129C73.6546 128.059 76.9533 121.209 83.0324 120.701C94.6982 119.727 98.2111 104.336 88.1234 98.3965C82.8666 95.3014 82.8666 87.6986 88.1234 84.6035C98.2111 78.6639 94.6982 63.273 83.0324 62.2985C76.9533 61.7907 73.6546 54.9408 77.0478 49.8714C83.5595 40.1431 73.7166 27.8006 62.7833 31.9842C57.0859 34.1643 51.1418 29.424 51.9994 23.3844C53.6453 11.7942 39.4219 4.94459 31.3865 13.4577C27.1993 17.8939 19.7871 16.2021 17.9393 10.3885Z" stroke="#5E7AC4" stroke-width="4"/>
</svg>
