<svg width="168" height="147" viewBox="0 0 168 147" fill="none" xmlns="http://www.w3.org/2000/svg">
<path d="M154.311 -166.092C133.914 -165.595 115.315 -148.545 101.975 -120.156C88.6925 -91.8876 80.9421 -52.9538 81.9877 -10.0737C83.0333 32.8064 92.672 71.3161 107.317 98.9034C122.024 126.609 141.433 142.732 161.829 142.235C182.225 141.737 200.824 124.687 214.164 96.2981C227.447 68.0299 235.197 29.0961 234.152 -13.784C233.106 -56.6641 223.467 -95.1739 208.823 -122.761C194.115 -150.467 174.707 -166.59 154.311 -166.092Z" stroke="#5E7AC4" stroke-width="4"/>
<path d="M312.231 -15.6893C311.734 -36.0856 294.684 -54.6848 266.295 -68.0246C238.026 -81.3075 199.092 -89.0579 156.212 -88.0123C113.332 -86.9667 74.8225 -77.328 47.2352 -62.6831C19.5298 -47.9755 3.40676 -28.5675 3.90409 -8.1712C4.40143 12.2251 21.4512 30.8243 49.8406 44.1641C78.1088 57.447 117.043 65.1973 159.923 64.1518C202.803 63.1062 241.313 53.4675 268.9 38.8226C296.605 24.115 312.728 4.70697 312.231 -15.6893Z" stroke="#5E7AC4" stroke-width="4"/>
</svg>
