<svg width="126" height="113" viewBox="0 0 126 113" fill="none" xmlns="http://www.w3.org/2000/svg">
<path d="M-15.6981 3.66104C-33.2981 4.09019 -49.4209 18.8114 -61.0175 43.4909C-72.5572 68.0494 -79.2976 101.892 -78.3884 139.18C-77.4792 176.467 -69.0974 209.941 -56.3744 233.908C-43.5888 257.993 -26.7676 271.911 -9.16771 271.482C8.43221 271.053 24.555 256.331 36.1516 231.652C47.6914 207.093 54.4318 173.251 53.5226 135.963C52.6134 98.6758 44.2316 65.2017 31.5086 41.2348C18.7229 17.1498 1.90177 3.23189 -15.6981 3.66104Z" stroke="#5E7AC4" stroke-width="4"/>
<path d="M121.478 134.306C121.048 116.706 106.327 100.583 81.6478 88.9864C57.0893 77.4467 23.2464 70.7063 -14.041 71.6155C-51.3283 72.5247 -84.8025 80.9065 -108.769 93.6295C-132.854 106.415 -146.772 123.236 -146.343 140.836C-145.914 158.436 -131.193 174.559 -106.513 186.156C-81.9548 197.695 -48.1119 204.436 -10.8245 203.526C26.4628 202.617 59.937 194.235 83.9039 181.512C107.989 168.727 121.907 151.906 121.478 134.306Z" stroke="#5E7AC4" stroke-width="4"/>
</svg>
