<svg width="34" height="34" viewBox="0 0 34 34" fill="none" xmlns="http://www.w3.org/2000/svg">
<path d="M7.08203 11.332C7.08203 7.32509 7.08203 5.32162 8.32683 4.07683C9.57162 2.83203 11.5751 2.83203 15.582 2.83203H18.4154C22.4223 2.83203 24.4258 2.83203 25.6706 4.07683C26.9154 5.32162 26.9154 7.32509 26.9154 11.332V22.6654C26.9154 26.6723 26.9154 28.6758 25.6706 29.9206C24.4258 31.1654 22.4223 31.1654 18.4154 31.1654H15.582C11.5751 31.1654 9.57162 31.1654 8.32683 29.9206C7.08203 28.6758 7.08203 26.6723 7.08203 22.6654V11.332Z" stroke="#253978" stroke-width="3"/>
<path d="M7.08203 5.77539C5.70066 5.91127 4.77083 6.21835 4.07683 6.91235C2.83203 8.15715 2.83203 10.1606 2.83203 14.1676V19.8342C2.83203 23.8412 2.83203 25.8446 4.07683 27.0894C4.77083 27.7834 5.70066 28.0905 7.08203 28.2264" stroke="#253978" stroke-width="3"/>
<path d="M26.918 5.77539C28.2993 5.91127 29.2292 6.21835 29.9232 6.91235C31.168 8.15715 31.168 10.1606 31.168 14.1676V19.8342C31.168 23.8412 31.168 25.8446 29.9232 27.0894C29.2292 27.7834 28.2993 28.0905 26.918 28.2264" stroke="#253978" stroke-width="3"/>
<path d="M12.75 18.418H21.25" stroke="#253978" stroke-width="3" stroke-linecap="round"/>
<path d="M12.75 12.75H21.25" stroke="#253978" stroke-width="3" stroke-linecap="round"/>
<path d="M12.75 24.082H17" stroke="#253978" stroke-width="3" stroke-linecap="round"/>
</svg>
