<svg width="423" height="264" viewBox="0 0 423 264" fill="none" xmlns="http://www.w3.org/2000/svg">
<g clip-path="url(#clip0_77_19163)">
<g opacity="0.1">
<path d="M521.5 12.8268C521.5 70.9397 473.205 118.153 413.5 118.153C353.795 118.153 305.5 70.9397 305.5 12.8268C305.5 -45.2861 353.795 -92.4998 413.5 -92.4998C473.205 -92.4998 521.5 -45.2861 521.5 12.8268Z" stroke="white" stroke-width="5"/>
<path d="M493.875 12.8272C493.875 56.0524 457.948 91.1971 413.5 91.1971C369.052 91.1971 333.125 56.0524 333.125 12.8272C333.125 -30.398 369.052 -65.5428 413.5 -65.5428C457.948 -65.5428 493.875 -30.398 493.875 12.8272Z" stroke="white" stroke-width="5"/>
<path d="M466.25 12.8276C466.25 41.165 442.691 64.2409 413.5 64.2409C384.309 64.2409 360.75 41.165 360.75 12.8276C360.75 -15.5099 384.309 -38.5858 413.5 -38.5858C442.691 -38.5858 466.25 -15.5099 466.25 12.8276Z" stroke="white" stroke-width="5"/>
<path d="M438.625 12.826C438.625 26.2757 427.434 37.2826 413.5 37.2826C399.566 37.2826 388.375 26.2757 388.375 12.826C388.375 -0.623693 399.566 -11.6307 413.5 -11.6307C427.434 -11.6307 438.625 -0.623693 438.625 12.826Z" stroke="white" stroke-width="5"/>
</g>
<g opacity="0.1">
<path d="M111.5 12.8268C111.5 70.9397 63.2048 118.153 3.5 118.153C-56.2048 118.153 -104.5 70.9397 -104.5 12.8268C-104.5 -45.2861 -56.2048 -92.4998 3.5 -92.4998C63.2048 -92.4998 111.5 -45.2861 111.5 12.8268Z" stroke="white" stroke-width="5"/>
<path d="M83.875 12.8272C83.875 56.0524 47.948 91.1971 3.50001 91.1971C-40.948 91.1971 -76.875 56.0524 -76.875 12.8272C-76.875 -30.398 -40.948 -65.5428 3.50001 -65.5428C47.948 -65.5428 83.875 -30.398 83.875 12.8272Z" stroke="white" stroke-width="5"/>
<path d="M56.25 12.8276C56.25 41.165 32.6911 64.2409 3.5 64.2409C-25.6911 64.2409 -49.25 41.165 -49.25 12.8276C-49.25 -15.5099 -25.6911 -38.5858 3.5 -38.5858C32.6911 -38.5858 56.25 -15.5099 56.25 12.8276Z" stroke="white" stroke-width="5"/>
<path d="M28.625 12.826C28.625 26.2757 17.4342 37.2826 3.5 37.2826C-10.4342 37.2826 -21.625 26.2757 -21.625 12.826C-21.625 -0.623693 -10.4342 -11.6307 3.5 -11.6307C17.4342 -11.6307 28.625 -0.623693 28.625 12.826Z" stroke="white" stroke-width="5"/>
</g>
</g>
<defs>
<clipPath id="clip0_77_19163">
<rect width="426" height="274" fill="white" transform="translate(-3 -3)"/>
</clipPath>
</defs>
</svg>
