<svg width="244" height="206" viewBox="0 0 244 206" fill="none" xmlns="http://www.w3.org/2000/svg">
<g clip-path="url(#clip0_75_19259)">
<path d="M210.117 3.21829C233.808 6.87827 252.882 29.548 264.118 64.5801C275.308 99.4683 278.452 145.923 270.771 195.638C263.091 245.353 246.074 288.694 224.878 318.578C203.594 348.587 178.568 364.443 154.877 360.783C131.187 357.124 112.113 334.454 100.877 299.422C89.687 264.534 86.543 218.078 94.2235 168.364C101.904 118.649 118.92 75.3081 140.117 45.4233C161.401 15.4152 186.427 -0.44168 210.117 3.21829Z" stroke="#CCD4F9" stroke-width="4.52258"/>
<path d="M3.71781 154.379C7.37778 130.688 30.0475 111.615 65.0796 100.379C99.9678 89.1889 146.423 86.0449 196.138 93.7253C245.853 101.406 289.193 118.422 319.078 139.619C349.086 160.903 364.943 185.928 361.283 209.619C357.623 233.31 334.953 252.384 299.921 263.62C265.033 274.81 218.578 277.954 168.863 270.273C119.148 262.593 75.8076 245.576 45.9228 224.38C15.9147 203.096 0.0578322 178.07 3.71781 154.379Z" stroke="#CCD4F9" stroke-width="4.52258"/>
</g>
<defs>
<clipPath id="clip0_75_19259">
<rect width="244" height="206" fill="white"/>
</clipPath>
</defs>
</svg>
