<svg width="373" height="320" viewBox="0 0 373 320" fill="none" xmlns="http://www.w3.org/2000/svg">
<g clip-path="url(#clip0_68_19154)">
<path d="M474.51 16.4795C468.462 -2.54809 441.538 -2.54809 435.49 16.4795C432.149 26.992 418.746 30.0511 411.174 22.0294C397.47 7.51012 373.212 19.1922 376.019 38.9594C377.57 49.8806 366.821 58.4521 356.519 54.51C337.872 47.3747 321.085 68.4251 332.191 85.0168C338.326 94.1835 332.361 106.57 321.369 107.488C301.473 109.15 295.482 135.399 312.686 145.529C322.192 151.126 322.192 164.874 312.686 170.471C295.482 180.601 301.473 206.85 321.369 208.512C332.361 209.43 338.326 221.816 332.191 230.983C321.085 247.575 337.872 268.625 356.519 261.49C366.821 257.548 377.57 266.119 376.019 277.041C373.212 296.808 397.47 308.49 411.174 293.971C418.746 285.949 432.149 289.008 435.49 299.521C441.538 318.548 468.462 318.548 474.51 299.521C477.851 289.008 491.254 285.949 498.826 293.971C512.53 308.49 536.788 296.808 533.981 277.041C532.43 266.119 543.179 257.548 553.481 261.49C572.128 268.625 588.915 247.575 577.809 230.983C571.674 221.816 577.639 209.43 588.631 208.512C608.527 206.85 614.518 180.601 597.314 170.471C587.808 164.874 587.808 151.126 597.314 145.529C614.518 135.399 608.527 109.15 588.631 107.488C577.639 106.57 571.674 94.1835 577.809 85.0168C588.915 68.4251 572.128 47.3747 553.481 54.51C543.179 58.4521 532.43 49.8806 533.981 38.9594C536.788 19.1922 512.53 7.51012 498.826 22.0294C491.254 30.0511 477.851 26.992 474.51 16.4795Z" stroke="#CCD4F9" stroke-width="6"/>
<path d="M178.586 241.001C172.98 223.361 148.02 223.361 142.414 241.001C139.417 250.428 127.398 253.172 120.608 245.978C107.903 232.518 85.4149 243.348 88.0171 261.673C89.4079 271.466 79.7689 279.153 70.53 275.618C53.2436 269.003 37.6813 288.518 47.9767 303.899C53.4792 312.12 48.1299 323.227 38.2721 324.051C19.8276 325.592 14.2734 349.926 30.2229 359.317C38.7472 364.336 38.7472 376.664 30.2229 381.683C14.2735 391.074 19.8276 415.408 38.2721 416.949C48.1299 417.773 53.4792 428.88 47.9767 437.101C37.6813 452.482 53.2436 471.997 70.53 465.382C79.7689 461.847 89.4079 469.534 88.0171 479.327C85.4149 497.652 107.903 508.482 120.608 495.022C127.398 487.828 139.417 490.572 142.414 499.999C148.02 517.639 172.98 517.639 178.586 499.999C181.583 490.572 193.602 487.828 200.392 495.022C213.097 508.482 235.585 497.652 232.983 479.327C231.592 469.534 241.231 461.847 250.47 465.382C267.756 471.997 283.319 452.482 273.023 437.101C267.521 428.88 272.87 417.773 282.728 416.949C301.172 415.408 306.727 391.074 290.777 381.683C282.253 376.664 282.253 364.336 290.777 359.317C306.727 349.926 301.172 325.592 282.728 324.051C272.87 323.227 267.521 312.12 273.023 303.899C283.319 288.518 267.756 269.003 250.47 275.618C241.231 279.153 231.592 271.466 232.983 261.673C235.585 243.348 213.097 232.518 200.392 245.978C193.602 253.172 181.583 250.428 178.586 241.001Z" stroke="#CCD4F9" stroke-width="6"/>
</g>
<defs>
<clipPath id="clip0_68_19154">
<rect width="373" height="320" fill="white"/>
</clipPath>
</defs>
</svg>
