<svg width="337" height="263" viewBox="0 0 337 263" fill="none" xmlns="http://www.w3.org/2000/svg">
<g clip-path="url(#clip0_75_19260)">
<path d="M375.99 8.47949C372.649 18.992 359.246 22.0511 351.674 14.0294C337.97 -0.489883 313.712 11.1922 316.519 30.9594C318.07 41.8806 307.321 50.4521 297.019 46.51C278.372 39.3747 261.585 60.4251 272.691 77.0168C278.826 86.1835 272.861 98.5698 261.869 99.488C241.973 101.15 235.982 127.399 253.186 137.529C262.692 143.126 262.692 156.874 253.186 162.471C235.982 172.601 241.973 198.85 261.869 200.512C272.861 201.43 278.826 213.816 272.691 222.983C261.585 239.575 278.372 260.625 297.019 253.49C307.321 249.548 318.07 258.119 316.519 269.041C313.712 288.808 337.97 300.49 351.674 285.971C359.246 277.949 372.649 281.008 375.99 291.521C382.038 310.548 408.962 310.548 415.01 291.521C418.351 281.008 431.754 277.949 439.326 285.971C453.03 300.49 477.288 288.808 474.481 269.041C472.93 258.119 483.679 249.548 493.981 253.49C512.628 260.625 529.415 239.575 518.309 222.983C512.174 213.816 518.139 201.43 529.131 200.512C549.027 198.85 555.018 172.601 537.814 162.471C528.308 156.874 528.308 143.126 537.814 137.529C555.018 127.399 549.027 101.15 529.131 99.488C518.139 98.5698 512.174 86.1835 518.309 77.0168C529.415 60.4251 512.628 39.3747 493.981 46.51C483.679 50.4521 472.93 41.8806 474.481 30.9594C477.288 11.1922 453.03 -0.48988 439.326 14.0294C431.754 22.0511 418.351 18.992 415.01 8.47949C408.962 -10.5481 382.038 -10.5481 375.99 8.47949Z" stroke="white" stroke-opacity="0.2" stroke-width="6"/>
<path d="M102.914 213.001C99.9173 222.428 87.8977 225.172 81.1076 217.978C68.4031 204.518 45.9149 215.348 48.5171 233.673C49.9079 243.466 40.2689 251.153 31.03 247.618C13.7436 241.003 -1.81869 260.518 8.47671 275.899C13.9792 284.12 8.62994 295.227 -1.22787 296.051C-19.6724 297.591 -25.2266 321.926 -9.27707 331.317C-0.752758 336.336 -0.752758 348.664 -9.27707 353.683C-25.2265 363.074 -19.6724 387.409 -1.22787 388.949C8.62994 389.773 13.9792 400.88 8.47672 409.101C-1.81868 424.482 13.7436 443.997 31.03 437.382C40.2689 433.847 49.9079 441.534 48.5171 451.327C45.9149 469.652 68.4031 480.482 81.1076 467.022C87.8977 459.828 99.9173 462.572 102.914 471.999C108.52 489.639 133.48 489.639 139.086 471.999C142.083 462.572 154.102 459.828 160.892 467.022C173.597 480.482 196.085 469.652 193.483 451.327C192.092 441.534 201.731 433.847 210.97 437.382C228.256 443.997 243.819 424.482 233.523 409.101C228.021 400.88 233.37 389.773 243.228 388.949C261.672 387.409 267.227 363.074 251.277 353.683C242.753 348.664 242.753 336.336 251.277 331.317C267.227 321.926 261.672 297.591 243.228 296.051C233.37 295.227 228.021 284.12 233.523 275.899C243.819 260.518 228.256 241.003 210.97 247.618C201.731 251.153 192.092 243.466 193.483 233.673C196.085 215.348 173.597 204.518 160.892 217.978C154.102 225.172 142.083 222.428 139.086 213.001C133.48 195.361 108.52 195.361 102.914 213.001Z" stroke="white" stroke-opacity="0.2" stroke-width="6"/>
</g>
<defs>
<clipPath id="clip0_75_19260">
<rect width="337" height="263" fill="white"/>
</clipPath>
</defs>
</svg>
