<svg width="413" height="339" viewBox="0 0 413 339" fill="none" xmlns="http://www.w3.org/2000/svg">
<g clip-path="url(#clip0_73_19153)">
<path d="M375.529 25.2869C412.53 31.0031 442.311 66.4067 459.852 121.098C477.322 175.566 482.23 248.091 470.24 325.704C458.25 403.316 431.684 470.979 398.592 517.636C365.363 564.483 326.287 589.249 289.286 583.533C252.286 577.817 222.505 542.413 204.963 487.722C187.493 433.254 182.586 360.729 194.576 283.116C206.566 205.504 233.131 137.842 266.224 91.1845C299.452 44.3366 338.529 19.5708 375.529 25.2869Z" stroke="#CCD4F9" stroke-width="7"/>
<path d="M53.2869 261.285C59.0031 224.285 94.4066 194.504 149.098 176.962C203.566 159.492 276.091 154.584 353.704 166.575C431.316 178.565 498.978 205.13 545.635 238.223C592.483 271.451 617.249 310.528 611.533 347.528C605.817 384.529 570.413 414.31 515.722 431.851C461.254 449.321 388.729 454.229 311.116 442.239C233.504 430.248 165.841 403.683 119.184 370.59C72.3365 337.362 47.5707 298.286 53.2869 261.285Z" stroke="#CCD4F9" stroke-width="7"/>
</g>
<defs>
<clipPath id="clip0_73_19153">
<rect width="414" height="339" fill="white"/>
</clipPath>
</defs>
</svg>
