<svg width="424" height="264" viewBox="0 0 424 264" fill="none" xmlns="http://www.w3.org/2000/svg">
<g clip-path="url(#clip0_77_19165)">
<g opacity="0.1">
<path d="M563.08 144.938L545.728 149.95C528.137 154.766 493.433 164.789 465.267 166.402C437.1 168.015 415.948 161.61 404.043 143.508C392.139 125.406 389.959 96.0004 380.765 74.6127C371.571 53.225 355.84 40.2484 334.449 33.6467C313.058 27.045 286.485 27.2114 265.095 20.6097C243.704 14.008 227.972 1.03135 219.868 -5.65358L212.002 -12.1419" stroke="white" stroke-width="4"/>
<path d="M563.08 144.938L545.728 149.95C528.137 154.766 493.433 164.789 465.267 166.402C437.1 168.015 415.948 161.61 404.043 143.508C392.139 125.406 389.959 96.0004 380.765 74.6127C371.571 53.225 355.84 40.2484 334.449 33.6467C313.058 27.045 286.485 27.2114 265.095 20.6097C243.704 14.008 227.972 1.03135 219.868 -5.65358L212.002 -12.1419" stroke="white" stroke-width="4"/>
<path d="M563.08 144.938L545.728 149.95C528.137 154.766 493.433 164.789 465.267 166.402C437.1 168.015 415.948 161.61 404.043 143.508C392.139 125.406 389.959 96.0004 380.765 74.6127C371.571 53.225 355.84 40.2484 334.449 33.6467C313.058 27.045 286.485 27.2114 265.095 20.6097C243.704 14.008 227.972 1.03135 219.868 -5.65358L212.002 -12.1419" stroke="white" stroke-width="4"/>
</g>
<path opacity="0.1" d="M316 -86C334.833 -78.8333 380 -73 371.5 -9C363 55 418.167 62.5 442 70.5" stroke="white" stroke-width="4"/>
<path d="M275.5 291.999C227.667 301.833 146.5 291.999 93.5 258.999C40.5 225.999 -28.6667 223.833 -64 229.999" stroke="white" stroke-opacity="0.1" stroke-width="4"/>
</g>
<defs>
<clipPath id="clip0_77_19165">
<rect width="500" height="295" fill="white" transform="translate(-43 -6)"/>
</clipPath>
</defs>
</svg>
