<svg width="391" height="380" viewBox="0 0 391 380" fill="none" xmlns="http://www.w3.org/2000/svg">
<path d="M347.529 25.2869C384.53 31.0031 414.311 66.4066 431.852 121.098C449.322 175.566 454.23 248.091 442.24 325.704C430.25 403.316 403.684 470.978 370.592 517.635C337.363 564.483 298.287 589.249 261.286 583.533C224.286 577.817 194.505 542.413 176.963 487.722C159.493 433.254 154.586 360.729 166.576 283.116C178.566 205.504 205.131 137.841 238.224 91.1844C271.452 44.3365 310.529 19.5707 347.529 25.2869Z" stroke="#CCD4F9" stroke-width="7"/>
<path d="M25.2869 261.285C31.0031 224.285 66.4066 194.504 121.098 176.962C175.566 159.492 248.091 154.584 325.704 166.575C403.316 178.565 470.978 205.13 517.635 238.223C564.483 271.451 589.249 310.528 583.533 347.528C577.817 384.529 542.413 414.31 487.722 431.851C433.254 449.321 360.729 454.229 283.116 442.239C205.504 430.248 137.841 403.683 91.1844 370.59C44.3365 337.362 19.5707 298.286 25.2869 261.285Z" stroke="#CCD4F9" stroke-width="7"/>
</svg>
