<svg width="158" height="181" viewBox="0 0 158 181" fill="none" xmlns="http://www.w3.org/2000/svg">
<path d="M157.876 12.3958C174.177 14.914 187.547 30.5746 195.49 55.3389C203.382 79.9441 205.615 112.774 200.181 147.953C194.746 183.133 182.709 213.758 167.76 234.835C152.714 256.047 135.241 266.943 118.941 264.425C102.641 261.907 89.2698 246.246 81.327 221.482C73.4352 196.876 71.2018 164.047 76.6367 128.867C82.0716 93.6874 94.1081 63.0625 109.057 41.986C124.103 20.7731 141.576 9.87758 157.876 12.3958Z" stroke="#CCD4F9" stroke-width="5"/>
<path d="M12.3958 118.941C14.914 102.641 30.5746 89.27 55.3389 81.3272C79.9441 73.4354 112.774 71.202 147.953 76.6369C183.133 82.0718 213.758 94.1083 234.835 109.057C256.047 124.103 266.943 141.577 264.425 157.877C261.907 174.177 246.246 187.548 221.482 195.49C196.876 203.382 164.047 205.616 128.867 200.181C93.6874 194.746 63.0625 182.709 41.986 167.76C20.7731 152.714 9.87758 135.241 12.3958 118.941Z" stroke="#CCD4F9" stroke-width="5"/>
</svg>
