<svg width="57" height="56" viewBox="0 0 57 56" fill="none" xmlns="http://www.w3.org/2000/svg">
<mask id="mask0_3663_662" style="mask-type:luminance" maskUnits="userSpaceOnUse" x="1" y="0" width="55" height="56">
<path d="M27.492 0.569843C24.7001 2.22757 21.8047 3.72988 18.8576 5.07678C16.1173 6.21647 13.2736 7.14894 10.43 7.92599L9.29249 8.23682L9.03398 9.3247C8.25843 12.3293 7.32777 15.2303 6.242 18.1314C5.00112 21.1878 3.55343 24.1924 1.95063 27.0416L1.43359 27.9741L1.89892 28.9066C1.89892 28.9584 3.86365 32.7919 5.51815 37.0916C7.17266 41.3913 9.03398 46.8307 9.08568 46.8825L9.4476 47.9186L10.4817 48.1258C13.2736 48.7993 16.0139 49.6799 18.7025 50.7678C21.753 52.1147 24.7001 53.6688 27.492 55.3784L28.5261 56L29.5602 55.3784C32.1453 53.7724 34.8339 52.3219 37.6259 51.0786C40.5213 49.8871 43.5201 48.9029 46.5706 48.074L47.6563 47.7632L47.9665 46.6753C48.7421 43.6189 49.7245 40.5624 50.8619 37.5578C52.1028 34.605 53.4988 31.704 55.1016 28.9066L55.6186 27.9741L55.1016 27.0416C53.3954 23.9852 51.896 20.877 50.5517 17.6133C49.5176 14.9195 48.6904 12.1739 48.07 9.3765L47.8631 8.23682L46.7257 7.92599C43.7269 7.09713 40.8315 6.11286 37.9361 4.92137C35.0924 3.67808 32.3005 2.22757 29.6119 0.569843L28.5261 0L27.492 0.569843Z" fill="white"/>
</mask>
<g mask="url(#mask0_3663_662)">
<path d="M-16.3516 6.42345L49.3633 -17.3027L73.3536 49.5761L7.63876 73.2505L-16.3516 6.42345Z" fill="url(#paint0_linear_3663_662)"/>
</g>
<path d="M49.2071 18.2345C48.2247 15.6961 47.3975 13.1059 46.8288 10.4639L46.6219 9.37605L45.5879 9.06523C42.7442 8.28817 40.0039 7.3557 37.2636 6.26782C34.5234 5.07633 31.9382 3.67762 29.4047 2.17531L28.4741 1.60547L27.5434 2.17531C24.9066 3.72943 22.218 5.17994 19.426 6.37143C16.8409 7.45931 14.204 8.33997 11.4637 9.06523L10.4296 9.32425L10.1711 10.3603C9.44728 13.1577 8.56833 15.9551 7.53426 18.6489C6.34509 21.55 5.0008 24.3474 3.4497 27.093L2.98438 27.9218L3.398 28.8025C3.398 28.8025 5.20762 32.4288 6.81042 36.5213C8.41322 40.6138 10.1194 45.6906 10.1194 45.7424L10.4296 46.6748L11.412 46.8821C14.0489 47.5037 16.634 48.3844 19.1158 49.3686C21.9595 50.6119 24.7515 52.0624 27.44 53.7202L28.3707 54.3418L29.3013 53.7202C31.7314 52.2179 34.3166 50.871 36.9534 49.6795C39.6937 48.5398 42.5374 47.6073 45.4328 46.8821L46.4668 46.623L46.7253 45.587C47.5009 42.6859 48.3799 39.8367 49.4656 37.0393C50.8616 33.6203 53.3951 28.9061 53.4468 28.8543L53.9121 27.9736L53.3951 27.093C51.8957 24.192 50.448 21.2391 49.2071 18.2345Z" fill="white"/>
<mask id="mask1_3663_662" style="mask-type:luminance" maskUnits="userSpaceOnUse" x="2" y="1" width="27" height="54">
<path d="M27.5434 2.17531C24.9066 3.72943 22.218 5.17994 19.426 6.37143C16.8409 7.45931 14.204 8.33997 11.4637 9.06523L10.4296 9.32425L10.1711 10.3603C9.44728 13.1577 8.56833 15.9551 7.53426 18.6489C6.34509 21.55 5.0008 24.3474 3.50141 27.093L2.98438 27.9218L3.4497 28.8025C3.4497 28.8025 5.25932 32.4288 6.86212 36.5213C8.46492 40.6138 10.1711 45.6906 10.1711 45.7424L10.4814 46.6748L11.4637 46.8821C14.1006 47.5037 16.6857 48.3326 19.1675 49.3686C22.0629 50.6119 24.8032 52.0624 27.4917 53.7202L28.4741 54.3418H28.5258V1.60547L27.5434 2.17531Z" fill="white"/>
</mask>
<g mask="url(#mask1_3663_662)">
<path d="M28.5249 1.60547H3.03516V54.3936H28.5249V1.60547Z" fill="url(#paint1_linear_3663_662)"/>
</g>
<mask id="mask2_3663_662" style="mask-type:luminance" maskUnits="userSpaceOnUse" x="5" y="4" width="47" height="48">
<path d="M27.6483 4.60984C25.27 6.00854 22.7882 7.30364 20.2547 8.44332C17.9281 9.4276 15.498 10.2047 13.068 10.8781L12.0856 11.1371L11.8271 12.1214C11.155 14.6598 10.3794 17.1464 9.44876 19.633C8.36299 22.2232 7.17382 24.8134 5.77783 27.2481L5.3125 28.0252L5.72613 28.8022C5.72613 28.8022 7.38063 32.0659 8.82832 35.7958C10.276 39.4739 11.8271 44.1362 11.8788 44.1362L12.189 44.9651L13.068 45.1723C15.4463 45.7421 17.773 46.5192 20.0479 47.4516C22.6331 48.5913 25.1149 49.8864 27.5449 51.3887L28.4239 51.9586L29.3545 51.2851C31.5778 49.8864 33.9044 48.6949 36.2828 47.6071C38.7645 46.6228 41.3497 45.7421 43.9348 45.0687L44.8655 44.8097L45.124 43.8772C45.7962 41.2352 46.6234 38.645 47.6058 36.1066C48.8467 32.9984 51.1733 28.7504 51.225 28.6986L51.6903 27.8698L51.225 27.0409C49.7773 24.4507 48.4847 21.7569 47.3473 19.0113C46.4683 16.7319 45.7445 14.349 45.1757 11.966L44.9689 10.9817L43.9866 10.7227C41.4531 9.99744 38.9713 9.16858 36.4896 8.1843C34.0595 7.14823 31.6295 5.95674 29.3545 4.60984L28.5273 4.0918L27.6483 4.60984Z" fill="white"/>
</mask>
<g mask="url(#mask2_3663_662)">
<path d="M-9.83594 9.53164L46.3138 -10.6719L66.84 46.416L10.6903 66.6713L-9.83594 9.53164Z" fill="url(#paint2_linear_3663_662)"/>
</g>
<path fill-rule="evenodd" clip-rule="evenodd" d="M18.6497 13.313C18.8048 14.5044 19.3218 17.9235 19.6838 19.1668C19.8906 19.0114 20.0457 18.8042 20.2008 18.5969C19.6838 16.3176 19.4769 14.0382 19.4769 11.707C16.2196 13.0539 18.4429 18.4415 19.3218 20.5137C19.4769 20.2547 19.4769 19.9957 19.4252 19.7366C19.0633 18.3379 18.081 14.7117 18.598 13.313" fill="white"/>
<path fill-rule="evenodd" clip-rule="evenodd" d="M16.8409 22.6892C16.3756 21.705 14.9796 19.7364 14.4109 18.8039C15.2898 19.581 16.6858 21.8086 17.7199 22.9482C17.7716 21.964 17.2546 21.3423 16.6858 20.5135C16.0137 19.2702 15.083 18.2341 13.9456 17.457H13.8422C13.2734 19.4774 14.6694 20.8761 15.8069 21.964C16.1171 22.3266 16.3756 22.8446 16.8409 22.6892Z" fill="white"/>
<path fill-rule="evenodd" clip-rule="evenodd" d="M20.8207 19.4785C19.2696 20.4628 20.1485 23.053 20.7173 24.1927C21.1309 23.2602 20.5104 21.8615 20.4587 20.9808C20.7173 21.2917 20.8724 22.4831 21.2343 22.794C21.2343 22.6386 21.3377 22.5349 21.4411 22.4313C21.0275 21.4989 20.8207 20.5146 20.8207 19.4785Z" fill="white"/>
<path fill-rule="evenodd" clip-rule="evenodd" d="M13.2227 20.9278C14.05 21.6013 15.4459 22.8964 16.2215 23.6216C16.3766 23.5698 16.2732 23.259 16.3766 23.0518C14.8255 22.0675 14.4119 20.2544 12.3438 19.7363C12.3955 22.2747 14.6187 23.259 16.0664 24.7095C16.2732 24.6577 16.48 24.6577 16.6868 24.7095C15.8079 23.5698 14.1534 22.0675 13.2227 20.9278Z" fill="white"/>
<path fill-rule="evenodd" clip-rule="evenodd" d="M11.3086 22.2246C11.412 24.6594 13.8938 25.2292 15.8068 26.2653C15.2897 25.1774 13.0665 24.1414 12.2393 23.2607C13.0148 23.6751 14.5659 24.763 15.2897 25.1774C15.4449 25.1774 15.4449 24.9702 15.6517 24.8148C14.2557 23.9859 13.4284 22.38 11.3086 22.2246Z" fill="white"/>
<path fill-rule="evenodd" clip-rule="evenodd" d="M16.168 25.8497C16.168 27.093 17.6157 27.3002 18.6497 27.87C18.7531 27.093 17.0986 26.7821 16.8401 26.2641C17.5123 26.4195 18.7531 27.4038 19.4253 27.1448C18.5463 26.6785 17.4606 25.228 16.168 25.8497Z" fill="white"/>
<path fill-rule="evenodd" clip-rule="evenodd" d="M10.4805 25.1244C10.7907 26.9894 13.4276 27.1448 15.1338 27.9736C15.3923 27.9736 14.9787 27.6628 15.0304 27.4556C14.2031 27.093 12.8071 26.4713 12.0316 26.0569C13.0656 26.3159 14.0997 26.6785 15.1338 27.093C15.2372 26.9375 15.4957 26.9375 15.5474 26.6785C13.9963 26.1087 12.4452 24.71 10.4805 25.1244Z" fill="white"/>
<path fill-rule="evenodd" clip-rule="evenodd" d="M16.8406 27.5074C16.427 27.3002 15.9099 27.4556 15.7031 27.87C15.8582 28.9061 17.8747 28.8025 18.6502 29.2169C18.6502 29.1651 18.7019 29.0615 18.8053 29.0615C18.0298 28.6989 17.2542 28.3363 16.427 28.0772C17.2025 28.1809 17.9264 28.3363 18.7019 28.6471C18.857 28.5435 18.7019 28.2845 18.6502 28.1809C18.0298 27.9736 17.461 27.7664 16.8406 27.5074Z" fill="white"/>
<path fill-rule="evenodd" clip-rule="evenodd" d="M10.3789 27.6626C10.534 29.0096 12.2919 29.0614 13.9981 29.2168C14.4118 29.2168 15.0322 29.5276 15.0322 28.9577C14.2049 28.8023 12.6539 28.4397 11.8783 28.2325C12.7056 28.1289 14.722 28.8023 15.4458 28.5951C14.1015 28.2843 11.413 26.5748 10.3789 27.6626Z" fill="white"/>
<path fill-rule="evenodd" clip-rule="evenodd" d="M15.7539 29.5791C16.0124 30.6152 17.4084 30.3044 18.2874 30.149C18.1323 29.7864 16.6329 29.7864 16.2709 29.5791C16.5812 29.3201 18.2357 29.9418 18.3908 29.4237C17.4601 29.2165 16.1158 28.5949 15.7539 29.5791Z" fill="white"/>
<path fill-rule="evenodd" clip-rule="evenodd" d="M10.4805 30.6688C12.0316 31.8084 13.9963 30.5651 15.5991 30.4615C15.3923 29.9953 14.6684 30.2025 14.1514 30.2543C13.6344 30.3061 12.4969 30.4097 11.9799 30.4097C13.0139 30.2025 14.048 30.0471 15.0821 29.9435C15.0821 29.8399 15.0304 29.7881 14.927 29.7363C13.2724 29.5809 10.9975 29.1664 10.4805 30.6688Z" fill="white"/>
<path fill-rule="evenodd" clip-rule="evenodd" d="M16.3242 31.7561C17.1515 32.3259 17.6168 31.9115 18.2889 31.497C18.6509 31.2898 19.1162 31.1344 19.1679 30.8754C18.6509 30.979 17.41 31.2898 16.893 31.3934C16.9447 31.1862 18.2889 30.7718 18.5475 30.6682C18.5475 30.5646 18.4958 30.5646 18.5475 30.5128C17.6685 30.4092 16.3759 30.4092 16.3242 31.7561Z" fill="white"/>
<path fill-rule="evenodd" clip-rule="evenodd" d="M13.5832 34.5005C14.2553 33.7235 15.6513 33.1018 16.4268 32.4284C15.7547 32.1693 14.8757 32.791 14.1519 33.2054C13.428 33.6199 12.2906 33.9825 12.4974 35.174C13.3763 36.0028 14.1002 35.0704 14.8757 34.5523C15.4962 34.1379 16.4268 33.7753 16.3234 33.1018C15.4962 33.309 14.3587 34.1379 13.5832 34.5005Z" fill="white"/>
<path fill-rule="evenodd" clip-rule="evenodd" d="M23.3052 34.086C23.1501 34.086 23.0467 34.086 22.8916 34.1378C22.633 34.5005 22.3745 35.7956 22.1677 36.1582C22.0126 35.7438 22.6848 34.2414 22.3745 33.9824C21.9092 34.7077 21.0302 36.1064 22.0126 36.6762C22.995 36.5726 23.1501 35.3293 23.3052 34.086Z" fill="white"/>
<path fill-rule="evenodd" clip-rule="evenodd" d="M24.701 34.2422C24.5459 34.2422 24.4425 34.294 24.2874 34.3458C24.1323 34.7084 24.0806 36.0035 23.9255 36.418C23.7187 36.0553 24.1323 34.4494 23.7704 34.2422C23.4602 35.0192 22.8397 36.5734 23.8738 36.936C24.8561 36.677 24.8044 35.4337 24.701 34.2422Z" fill="white"/>
<path fill-rule="evenodd" clip-rule="evenodd" d="M15.2363 36.1076C15.4949 35.4341 16.684 34.5535 17.0977 33.88C16.9943 33.8282 16.8909 33.8282 16.8391 33.7246C16.2187 34.4499 13.7887 35.2269 14.4091 36.781C14.5642 36.8328 14.771 36.8846 14.9778 36.9365C15.4432 37.0919 15.7534 36.7292 16.0636 36.4184C16.3738 36.1076 16.684 35.6932 16.9943 35.3305C17.1494 35.1233 17.3562 34.9161 17.563 34.7607C17.4596 34.6053 17.563 34.139 17.3562 34.2426C16.684 34.9161 15.9602 35.5377 15.2363 36.1076Z" fill="white"/>
<path fill-rule="evenodd" clip-rule="evenodd" d="M18.3927 33.8281C18.1859 33.9835 18.341 34.3462 18.341 34.5016C18.5478 34.3462 18.3927 34.0353 18.3927 33.8281Z" fill="white"/>
<path fill-rule="evenodd" clip-rule="evenodd" d="M18.7556 35.2776C18.4454 35.8993 18.0318 36.5209 17.5148 36.9871C17.6699 36.3137 18.1869 35.7439 18.342 35.0704L17.7216 34.9668C17.3597 35.7957 16.1705 36.7281 16.9977 37.6088C17.1011 37.7642 17.4114 37.7124 17.5665 37.7124C17.7733 37.7124 17.9801 37.557 18.0835 37.3498C18.3937 36.8317 18.6522 36.2619 18.9625 35.6921C18.9108 35.4848 18.8591 35.2776 18.7039 35.174" fill="white"/>
<path fill-rule="evenodd" clip-rule="evenodd" d="M16.4267 14.6094C14.1518 16.6297 16.9438 20.0488 18.0295 21.4993C18.1846 20.8776 17.5642 20.2042 17.3574 19.6862C17.1506 19.1681 16.5301 17.4586 16.3233 16.8887C17.0989 17.9248 18.0295 20.8776 19.3221 21.6547C18.9085 20.7222 18.4949 19.738 18.0295 18.7019C17.8227 18.2356 16.6852 15.5936 16.4267 14.6094Z" fill="white"/>
<path fill-rule="evenodd" clip-rule="evenodd" d="M17.6172 24.5025C18.2893 24.9688 18.9615 25.435 19.5819 26.0049C19.5302 25.176 18.5478 24.3471 18.1859 24.0881C18.1859 24.0881 17.3587 23.5183 17.0484 23.8291C16.7899 25.694 18.5995 26.0049 19.5302 26.9373C19.5819 26.1085 17.9274 25.176 17.6172 24.5025Z" fill="white"/>
<path fill-rule="evenodd" clip-rule="evenodd" d="M17.6158 33.0512C18.5465 33.7247 19.1669 32.6886 19.6839 32.2224C19.1669 31.8597 18.4948 32.585 18.0811 32.7404C18.0811 32.2742 19.3737 32.1188 19.2186 31.4453C18.6499 31.7561 17.3573 32.1188 17.6158 33.0512Z" fill="white"/>
<path fill-rule="evenodd" clip-rule="evenodd" d="M21.6479 34.3983C21.7513 33.9321 22.1132 33.7767 21.8547 33.4141C21.3377 33.5695 20.9241 34.9682 20.407 35.2272C20.6655 34.6574 20.9241 34.0357 21.2343 33.5177C21.0275 33.5695 20.9241 33.6213 20.7689 33.4659C20.5621 34.2429 19.4247 34.9682 20.0968 35.7452C20.2519 35.4862 21.1309 36.0561 21.6479 34.3983Z" fill="white"/>
<path fill-rule="evenodd" clip-rule="evenodd" d="M11.0508 32.9999C11.5161 30.8759 14.2047 31.7048 15.7558 30.9277C15.4973 31.4458 14.7734 31.4976 14.2047 31.7566C13.6359 32.0156 12.4468 32.3264 12.0331 32.5855C12.9638 32.3782 14.6183 31.8084 15.549 31.653C15.549 31.8602 15.3939 31.8602 15.4456 32.0674C14.2047 32.171 12.8087 33.7251 11.6195 33.3625H11.5678C11.3093 33.3107 11.2576 33.1035 11.0508 33.0517" fill="white"/>
<path fill-rule="evenodd" clip-rule="evenodd" d="M19.373 33.1031L19.6832 32.844C19.9417 32.6368 20.1485 32.2742 20.4071 32.5332C20.0968 32.8959 19.1145 33.8801 18.8043 34.2946C19.2179 34.0873 20.1485 33.0513 20.6139 32.844C20.6139 33.5175 19.4764 34.968 18.7008 34.709L18.494 34.6054L18.4423 34.5018C18.3906 34.2946 18.3906 34.1391 18.3906 33.9319C18.3906 33.7765 19.373 33.1031 19.373 33.1031Z" fill="white"/>
<path fill-rule="evenodd" clip-rule="evenodd" d="M18.4972 22.0684C18.4972 22.0166 18.6006 21.9648 18.6006 21.9648C19.6864 22.8973 20.4619 24.1406 20.7721 25.5393L20.4102 25.4875C19.9449 24.6068 19.4278 23.778 18.8591 22.9491C19.221 23.778 19.6347 24.6068 20.1 25.4357H19.7381C19.221 24.3996 17.9284 23.7262 18.4972 22.0684Z" fill="white"/>
<path fill-rule="evenodd" clip-rule="evenodd" d="M19.685 29.3207C20.0986 29.2689 20.5639 29.6834 20.719 29.3725C20.0986 29.0099 19.2196 28.8545 19.4782 27.8184C20.3054 27.404 20.8741 28.3883 21.3912 28.4401C21.0293 27.7148 19.9435 27.3004 20.3054 26.1089C21.7531 26.1089 21.7531 27.4558 22.1667 27.6112C22.0633 27.6112 22.0116 26.8859 21.9599 26.7823C21.8048 26.3161 21.3912 25.9535 21.3395 25.4872C21.3395 25.1246 21.3912 24.762 21.4946 24.4512C21.5463 24.0367 21.8048 23.6223 22.1667 23.3633C22.3218 24.8138 23.4593 26.0571 23.4076 27.663C23.3559 29.1135 21.598 28.3365 21.4429 29.787C21.4946 30.6158 22.0116 31.3411 22.7872 31.6519C23.5627 31.8073 24.2866 31.9109 25.0621 31.9627C25.1138 32.3772 25.1655 33.2578 24.6485 33.5686C24.4417 33.7241 24.1832 33.6723 23.9763 33.465C23.8212 33.2578 23.7695 33.0506 23.8212 32.7916C23.8212 32.688 23.8212 32.5844 23.8212 32.4808C23.7695 32.3772 23.7178 32.3254 23.6661 32.2217C23.4593 32.688 23.5627 33.2578 23.0974 33.5168C22.994 33.6205 22.8389 33.6205 22.6838 33.6205C22.4769 33.3614 22.2701 33.3614 22.2184 32.9988C22.2184 32.688 22.7355 32.1699 22.3735 31.8591C21.9082 33.1024 21.3395 32.7916 21.1844 32.9988C20.5639 32.429 21.3912 31.8073 21.4946 31.3929C20.9258 31.6519 20.5639 32.5326 19.8401 31.8073C19.8401 31.5483 19.8401 31.3411 19.8918 31.0821C20.0986 30.7194 20.6673 30.8748 20.8224 30.4604C20.4605 30.2014 19.9952 30.823 19.5816 30.7194C19.2196 30.6158 18.9611 30.2014 19.1162 29.8388C19.2713 29.6316 19.4782 29.4243 19.685 29.3207Z" fill="white"/>
<path fill-rule="evenodd" clip-rule="evenodd" d="M38.348 13.313C38.1929 14.5044 37.6758 17.9235 37.3139 19.1668C37.1071 19.0114 36.952 18.8042 36.7969 18.5969C37.3139 16.3176 37.5207 14.0382 37.5207 11.707C40.778 13.0539 38.5548 18.4415 37.6758 20.5137C37.5724 20.2547 37.5207 19.9957 37.5724 19.7366C37.9343 18.3379 38.9167 14.7117 38.3997 13.313" fill="white"/>
<path fill-rule="evenodd" clip-rule="evenodd" d="M40.1091 22.6892C40.5744 21.705 42.0221 19.7364 42.5391 18.8039C41.6602 19.581 40.2642 21.8086 39.2301 22.9482C39.1784 21.964 39.6955 21.3423 40.2642 20.5135C40.9363 19.2702 41.867 18.2341 43.0045 17.457H43.1079C43.6766 19.4774 42.2806 20.8761 41.1432 21.964C40.8846 22.2748 40.6261 22.8446 40.1091 22.6892Z" fill="white"/>
<path fill-rule="evenodd" clip-rule="evenodd" d="M36.2298 19.4785C37.7809 20.4628 36.8503 23.053 36.2815 24.1927C35.8679 23.2602 36.4883 21.8615 36.54 20.9808C36.2815 21.2917 36.1264 22.4831 35.8162 22.794C35.8162 22.6386 35.7128 22.5349 35.6094 22.4313C35.9196 21.4989 36.1781 20.5146 36.2298 19.4785Z" fill="white"/>
<path fill-rule="evenodd" clip-rule="evenodd" d="M43.7258 20.9278C42.8986 21.6013 41.5026 22.8964 40.727 23.6216C40.5719 23.5698 40.6753 23.259 40.5719 23.0518C42.123 22.0675 42.5367 20.2544 44.6048 19.7363C44.5531 22.2747 42.3299 23.259 40.8822 24.7095C40.6753 24.6577 40.4685 24.6577 40.2617 24.7095C41.1924 23.5698 42.8469 22.0675 43.7258 20.9278Z" fill="white"/>
<path fill-rule="evenodd" clip-rule="evenodd" d="M45.6896 22.2246C45.5862 24.6594 43.1044 25.2292 41.1914 26.2653C41.7084 25.1774 43.9317 24.1414 44.7072 23.2607C43.9317 23.6751 42.3806 24.763 41.605 25.1256C41.5016 25.1256 41.4499 24.9184 41.2948 24.763C42.7425 23.9859 43.5181 22.38 45.6896 22.2246Z" fill="white"/>
<path fill-rule="evenodd" clip-rule="evenodd" d="M40.8315 25.8497C40.8315 27.093 39.3838 27.3002 38.3498 27.87C38.2464 27.093 39.9526 26.7821 40.1594 26.2641C39.4872 26.4195 38.2464 27.4038 37.5742 27.1448C38.4532 26.6785 39.5389 25.228 40.8315 25.8497Z" fill="white"/>
<path fill-rule="evenodd" clip-rule="evenodd" d="M46.5708 25.1244C46.2606 26.9894 43.6237 27.1448 41.9175 27.9736C41.659 27.9736 42.0726 27.6628 42.0209 27.4556C42.8482 27.093 44.2442 26.4713 45.0197 26.0569C43.9857 26.3159 42.9516 26.6785 41.9175 27.093C41.8141 26.9375 41.5556 26.9375 41.5039 26.6785C43.055 26.1087 44.6061 24.71 46.5708 25.1244Z" fill="white"/>
<path fill-rule="evenodd" clip-rule="evenodd" d="M25.5793 42.4789C25.1139 41.9091 25.7344 41.132 25.9412 40.4068C25.9929 40.3549 25.9929 40.5622 26.0963 40.5622C25.9412 40.9248 25.8378 41.4428 25.7344 41.8055C25.8895 41.4428 26.0446 41.0284 26.1997 40.6658C26.3031 40.6658 26.3548 40.614 26.4065 40.6658C26.1997 41.2356 26.1997 42.0127 25.5793 42.4789Z" fill="white"/>
<path fill-rule="evenodd" clip-rule="evenodd" d="M26.2525 45.5871C27.2865 45.2763 27.1831 42.8933 27.4933 41.2874C27.4933 41.0802 27.3382 41.4428 27.2348 41.391C27.0797 42.1681 26.8212 43.4113 26.6661 44.1366C26.6661 43.4631 26.9246 42.0126 27.028 41.3392C26.9246 41.2356 26.9246 41.0284 26.7695 40.9766C26.511 42.3753 25.8388 43.8258 26.2525 45.5871Z" fill="white"/>
<path fill-rule="evenodd" clip-rule="evenodd" d="M31.421 42.4789C31.8863 41.9091 31.2659 41.132 31.0591 40.4068C31.0074 40.3549 31.0074 40.5622 30.904 40.5622C31.0074 40.873 31.1625 41.4428 31.2659 41.7537C31.1108 41.391 30.9557 40.9766 30.8006 40.614C30.6972 40.614 30.6455 40.5622 30.5938 40.614C30.8006 41.2356 30.8006 42.0127 31.421 42.4789Z" fill="white"/>
<path fill-rule="evenodd" clip-rule="evenodd" d="M30.7995 45.5871C29.7654 45.2763 29.8688 42.8933 29.5586 41.2874C29.5586 41.0802 29.7137 41.4428 29.8171 41.391C29.9722 42.1681 30.2307 43.4113 30.3858 44.1366C30.3858 43.4631 30.1273 42.0126 30.0239 41.3392C30.1273 41.2356 30.1273 41.0284 30.2824 40.9766C30.4893 42.3753 31.1614 43.8258 30.7995 45.5871Z" fill="white"/>
<path fill-rule="evenodd" clip-rule="evenodd" d="M40.1093 27.5074C40.5229 27.3002 41.0399 27.4556 41.2467 27.87C41.0916 28.9061 39.0752 28.8025 38.2996 29.2169C38.2996 29.1651 38.2479 29.0615 38.1445 29.0615C38.9201 28.6989 39.6956 28.3363 40.5229 28.0772C39.7473 28.1809 38.9718 28.3363 38.2479 28.6471C38.0928 28.5435 38.2479 28.2845 38.2996 28.1809C38.9201 27.9736 39.5405 27.7664 40.1093 27.5074Z" fill="white"/>
<path fill-rule="evenodd" clip-rule="evenodd" d="M46.5708 27.6626C46.4157 29.0096 44.6578 29.0614 42.9516 29.2168C42.538 29.2168 41.9175 29.5276 41.9175 28.9577C42.7448 28.8023 44.2959 28.4397 45.0714 28.2325C44.2442 28.1289 42.2278 28.8023 41.5039 28.5951C42.8999 28.2843 45.5885 26.5748 46.5708 27.6626Z" fill="white"/>
<path fill-rule="evenodd" clip-rule="evenodd" d="M41.2453 29.5791C40.9868 30.6152 39.5908 30.3044 38.7119 30.149C38.867 29.7864 40.3664 29.7864 40.7283 29.5791C40.4181 29.3201 38.7636 29.9418 38.6602 29.4237C39.5391 29.2165 40.8834 28.5949 41.2453 29.5791Z" fill="white"/>
<path fill-rule="evenodd" clip-rule="evenodd" d="M46.52 30.6688C44.9689 31.8084 43.0042 30.5651 41.4531 30.4615C41.6599 29.9953 42.3838 30.2025 42.9008 30.2543C43.4178 30.3061 44.5553 30.4097 45.0724 30.4097C44.0383 30.2025 43.0042 30.0471 41.9702 29.9435C41.9702 29.8399 42.0219 29.7881 42.1253 29.7363C43.7281 29.5809 46.003 29.1664 46.52 30.6688Z" fill="white"/>
<path fill-rule="evenodd" clip-rule="evenodd" d="M40.6757 31.7561C39.8485 32.3259 39.3831 31.9115 38.711 31.497C38.3491 31.2898 37.8837 31.1344 37.832 30.8754C38.3491 30.979 39.5899 31.2898 40.107 31.3934C40.0553 31.1862 38.711 30.7718 38.4525 30.6682C38.4525 30.5646 38.5042 30.5646 38.4525 30.5128C39.3314 30.4092 40.624 30.4092 40.6757 31.7561Z" fill="white"/>
<path fill-rule="evenodd" clip-rule="evenodd" d="M43.3632 34.5005C42.6911 33.7235 41.2951 33.1018 40.5195 32.4284C41.1917 32.1693 42.0706 32.791 42.7945 33.2054C43.5183 33.6199 44.6558 33.9825 44.449 35.1222C43.57 35.951 42.8462 35.0186 42.0706 34.5005C41.4502 34.0861 40.5195 33.7235 40.6229 33.05C41.5019 33.2572 42.6394 34.0861 43.3632 34.5005Z" fill="white"/>
<path fill-rule="evenodd" clip-rule="evenodd" d="M33.6953 34.086C33.8504 34.086 33.9538 34.086 34.1089 34.1378C34.3158 34.5005 34.626 35.7956 34.8328 36.1582C34.9879 35.7438 34.3157 34.2414 34.626 33.9824C35.0913 34.7077 35.9703 36.1064 34.9879 36.6762C34.0055 36.5726 33.8504 35.3293 33.6953 34.086Z" fill="white"/>
<path fill-rule="evenodd" clip-rule="evenodd" d="M32.2503 34.2422C32.4054 34.2422 32.5088 34.294 32.6639 34.3458C32.819 34.7084 32.8707 36.0035 33.0258 36.418C33.2326 36.0553 32.819 34.4494 33.1809 34.2422C33.4912 35.0192 34.1116 36.5734 33.0775 36.936C32.1469 36.677 32.1986 35.4337 32.2503 34.2422Z" fill="white"/>
<path fill-rule="evenodd" clip-rule="evenodd" d="M41.8149 36.1076C41.5564 35.4341 40.3672 34.5535 39.9536 33.88C40.057 33.8282 40.1604 33.8282 40.2121 33.7246C40.8326 34.4499 43.2626 35.2269 42.6422 36.781C42.4871 36.8328 42.2803 36.8846 42.0734 36.9365C41.6081 37.0919 41.2979 36.7292 40.9877 36.4184C40.6775 36.1076 40.3672 35.6932 40.057 35.3305C39.9019 35.1233 39.6951 34.9161 39.4883 34.7607C39.5917 34.6053 39.4883 34.139 39.6951 34.2426C40.3155 34.9161 41.0394 35.5377 41.8149 36.1076Z" fill="white"/>
<path fill-rule="evenodd" clip-rule="evenodd" d="M38.5579 33.8281C38.7647 33.9835 38.6096 34.3462 38.6096 34.5016C38.4028 34.3462 38.6096 34.0353 38.5579 33.8281Z" fill="white"/>
<path fill-rule="evenodd" clip-rule="evenodd" d="M38.1951 35.2776C38.5053 35.8993 38.9189 36.5209 39.436 36.9871C39.2809 36.3137 38.7638 35.7439 38.6087 35.0704L39.2292 34.9668C39.5911 35.7957 40.7803 36.7281 39.953 37.6088C39.8496 37.7642 39.5394 37.7124 39.3843 37.7124C39.1775 37.7124 38.9706 37.557 38.8672 37.3498C38.557 36.8317 38.2985 36.2619 37.9883 35.6921C38.04 35.4848 38.0917 35.2776 38.2468 35.174" fill="white"/>
<path fill-rule="evenodd" clip-rule="evenodd" d="M40.5712 14.6094C42.8461 16.6297 40.0541 20.0488 38.9684 21.4993C38.8133 20.8776 39.4337 20.2042 39.6405 19.6862C39.8473 19.1681 40.4678 17.4586 40.6746 16.8887C39.899 17.9248 38.9684 20.8776 37.6758 21.6547C38.0894 20.7222 38.503 19.738 38.9684 18.7019C39.1752 18.2356 40.3126 15.5936 40.5712 14.6094Z" fill="white"/>
<path fill-rule="evenodd" clip-rule="evenodd" d="M39.3827 24.5025C38.7106 24.9688 38.0384 25.435 37.418 26.0049C37.4697 25.176 38.452 24.3471 38.814 24.0881C38.814 24.0881 39.6412 23.5183 40.0031 23.8291C40.2617 25.694 38.452 26.0049 37.4697 26.9373C37.3146 26.1085 39.0208 25.176 39.3827 24.5025Z" fill="white"/>
<path fill-rule="evenodd" clip-rule="evenodd" d="M39.3845 33.0512C38.4539 33.7247 37.8334 32.6886 37.3164 32.2224C37.8334 31.8597 38.5056 32.585 38.9192 32.7404C38.9192 32.2742 37.6266 32.1188 37.7817 31.4453C38.3505 31.7561 39.5914 32.1188 39.3845 33.0512Z" fill="white"/>
<path fill-rule="evenodd" clip-rule="evenodd" d="M35.3489 34.3983C35.2455 33.9321 34.8836 33.7767 35.1421 33.4141C35.6591 33.5695 36.0728 34.9682 36.5898 35.2272C36.3313 34.6574 36.0728 34.0875 35.7625 33.5177C35.9693 33.5695 36.0728 33.6213 36.2279 33.4659C36.4347 34.2429 37.5721 34.9682 36.9 35.7452C36.7449 35.4862 35.8142 36.0561 35.3489 34.3983Z" fill="white"/>
<path fill-rule="evenodd" clip-rule="evenodd" d="M45.9502 32.9999C45.4848 30.8759 42.7963 31.7048 41.2969 30.9277C41.5554 31.4458 42.2792 31.4976 42.7963 31.7566C43.3133 32.0156 44.5542 32.3264 44.9678 32.5855C44.0371 32.3782 42.3309 31.8084 41.4003 31.6012C41.4003 31.8084 41.5554 31.8084 41.5037 32.0156C42.7446 32.1192 44.1406 33.6733 45.3297 33.3107H45.3814C45.5883 33.2589 45.6917 33.0517 45.8985 32.9999" fill="white"/>
<path fill-rule="evenodd" clip-rule="evenodd" d="M37.6784 33.1031C37.575 32.9995 37.4716 32.9477 37.3682 32.844C37.1096 32.6368 36.9028 32.2742 36.6443 32.5332C36.9545 32.8959 37.9369 33.8801 38.2471 34.2946C37.8335 34.0873 36.9028 33.0513 36.4375 32.844C36.4375 33.5175 37.575 34.968 38.3505 34.709L38.5573 34.6054L38.609 34.5018C38.6607 34.2946 38.6607 34.1391 38.6607 33.9319C38.6607 33.7765 37.6784 33.1031 37.6784 33.1031Z" fill="white"/>
<path fill-rule="evenodd" clip-rule="evenodd" d="M38.4546 22.0684C38.4546 22.0166 38.4029 21.9648 38.3512 21.9648C37.2655 22.8973 36.4899 24.1406 36.1797 25.5393L36.5416 25.4875C37.0069 24.6068 37.524 23.778 38.0927 22.9491C37.7308 23.8298 37.3172 24.6586 36.8518 25.4357H37.2138C37.7825 24.4514 39.0234 23.7262 38.4546 22.0684Z" fill="white"/>
<path fill-rule="evenodd" clip-rule="evenodd" d="M37.3672 29.3207C36.9536 29.2689 36.4882 29.6834 36.3331 29.3725C36.9536 29.0099 37.8325 28.8545 37.5223 27.8184C36.6951 27.404 36.178 28.3883 35.6093 28.4401C35.9712 27.7148 37.057 27.3004 36.6433 26.1089C35.1957 26.1089 35.2474 27.4558 34.782 27.6112C34.8854 27.6112 34.9371 26.8859 34.9888 26.7823C35.144 26.3161 35.5576 25.9535 35.6093 25.4872C35.6093 25.1246 35.5576 24.762 35.4542 24.4512C35.4025 24.0367 35.144 23.6223 34.782 23.3633C34.6269 24.8138 33.4894 26.0571 33.5412 27.663C33.5929 29.1135 35.3508 28.3365 35.5059 29.787C35.4542 30.6158 34.9371 31.3411 34.1616 31.6519C33.386 31.8073 32.6622 31.9109 31.8866 31.9627C31.8349 32.3772 31.7832 33.2578 32.3003 33.5686C32.5071 33.7241 32.7656 33.6723 32.9724 33.465C33.1275 33.2578 33.1792 33.0506 33.1275 32.7916C33.1275 32.688 33.1275 32.5844 33.1275 32.4808C33.1792 32.3772 33.2309 32.3254 33.2826 32.2217C33.4894 32.688 33.386 33.2578 33.8514 33.5168C33.9548 33.6205 34.1099 33.6205 34.265 33.6205C34.4718 33.3614 34.6786 33.3614 34.7303 32.9988C34.782 32.688 34.2133 32.1699 34.5752 31.8591C35.0405 33.1024 35.6093 32.7916 35.7644 32.9988C36.3848 32.429 35.5576 31.8073 35.4542 31.3929C36.0229 31.6519 36.3848 32.5326 37.1604 31.8073C37.1604 31.5483 37.1604 31.3411 37.1087 31.0821C36.9019 30.7194 36.3331 30.8748 36.178 30.4604C36.5399 30.2014 37.0053 30.823 37.4189 30.7194C37.7808 30.6158 38.0393 30.2014 37.8842 29.8388C37.7291 29.6316 37.574 29.4243 37.3672 29.3207Z" fill="white"/>
<path fill-rule="evenodd" clip-rule="evenodd" d="M29.1985 41.5976C28.9917 41.5976 28.8883 41.8566 28.7332 41.9084C28.6815 42.8409 28.6815 44.8094 28.5264 45.6901C28.3713 44.7576 28.3713 42.8409 28.3195 41.9084C28.1127 41.8566 28.061 41.5458 27.8542 41.5976C27.9576 43.5143 27.2855 45.6901 28.3712 47.8141L28.5781 48.1767L28.7849 47.8141C29.7672 45.6901 29.1468 43.4625 29.1985 41.5976Z" fill="white"/>
<path fill-rule="evenodd" clip-rule="evenodd" d="M31.0083 27.7666C31.422 27.7666 31.7322 27.663 31.8356 27.922C31.1117 27.7666 30.3362 28.3883 30.2328 27.922C30.2328 28.3365 29.7674 28.3883 29.664 28.7509C29.4572 29.3726 29.7674 30.0978 30.3879 30.305C30.3879 30.305 30.3879 30.305 30.4396 30.305C30.5947 30.3568 30.7498 30.3568 30.9049 30.3568C30.8015 30.6676 30.4913 31.0821 30.0777 30.8231C30.2328 30.9785 30.4396 31.1339 30.5947 31.3411L28.5266 32.0145L26.355 31.2893C26.4067 31.1339 26.4067 30.9267 26.4067 30.7713C26.4067 30.2014 26.6135 29.6316 26.9238 29.1135C26.6653 29.2171 25.9931 29.2171 25.9414 28.9581C26.9755 28.4401 26.9755 26.7306 28.0095 26.2125C27.5959 26.2125 27.4408 25.7981 27.3374 25.5391C28.2163 26.0571 31.3185 24.9692 31.5254 26.1089C31.5771 26.4715 31.2151 26.5751 31.2668 26.7824C31.4737 26.6269 31.6805 26.4715 31.8356 26.2643C32.4043 26.3679 32.7662 26.9378 32.6628 27.5076C32.6111 27.663 32.5594 27.8184 32.456 27.922C32.1458 27.4558 31.4737 27.404 31.0083 27.7666ZM29.7674 26.2643C29.3538 26.2643 29.9226 26.8342 30.1811 26.7824C30.4396 26.7306 30.6464 26.3161 31.0083 26.5233C31.0083 26.2125 30.3362 26.2125 29.7674 26.2643Z" fill="white"/>
<path fill-rule="evenodd" clip-rule="evenodd" d="M31.8349 36.7299C31.5247 35.8492 31.4213 34.9167 31.5764 34.0361C31.3179 33.3626 31.2145 32.6374 31.2662 31.9121C30.3872 32.3265 29.4566 32.5856 28.5259 32.7928C27.5953 32.5856 26.6646 32.2747 25.7857 31.9121C25.8374 32.6374 25.734 33.3626 25.4754 34.0361C25.6305 34.9685 25.5271 35.901 25.2169 36.7299C25.2169 36.7299 24.6999 39.5273 27.0265 40.3561C29.3532 41.185 27.6987 41.185 30.0253 40.3561C32.352 39.5273 31.7832 36.7299 31.8349 36.7299ZM30.2321 33C30.3355 33.3108 30.439 33.9325 30.5941 34.1915C30.5424 33.8289 30.439 33.3108 30.3872 32.9482C30.4907 32.9482 30.4907 32.741 30.5424 32.7928C30.6458 33.518 31.2145 34.3469 30.6975 34.8649C30.1287 34.3469 30.2321 33.518 30.077 32.9482C30.077 32.9482 30.1287 33 30.2321 33ZM26.4061 32.7928C26.4578 32.6892 26.4578 32.8964 26.5612 32.9482C26.5095 33.3108 26.4061 33.8289 26.3544 34.1915C26.5095 33.777 26.6129 33.4144 26.7163 33C26.8197 33 26.8714 32.9482 26.9231 32.9482C26.768 33.5698 26.8714 34.3469 26.3027 34.8649C25.7857 34.3469 26.3027 33.518 26.4061 32.7928ZM25.8891 38.1804C25.372 37.6623 25.8891 36.8335 26.0442 36.1082C26.0959 36.0564 26.0959 36.2118 26.1993 36.2636C26.1476 36.6263 26.0442 37.1961 25.9925 37.5069C26.1476 37.0925 26.251 36.7299 26.3027 36.3154C26.4061 36.3154 26.4061 36.2636 26.5095 36.2636C26.3544 36.8853 26.4578 37.6623 25.8891 38.1804ZM26.8197 39.7345C26.3027 39.2165 26.8197 38.3876 26.9748 37.6623C27.0265 37.6105 27.0265 37.7659 27.1299 37.8178C27.0782 38.1804 26.9748 38.7502 26.9231 39.061C27.0782 38.6466 27.1816 38.284 27.2851 37.8696C27.3885 37.8696 27.3885 37.7659 27.4919 37.8178C27.2851 38.3876 27.3885 39.2165 26.8197 39.7345ZM27.1816 36.6781C26.6646 36.16 27.1816 35.3312 27.3368 34.6059C27.3885 34.5023 27.3885 34.7095 27.4919 34.7613C27.4402 35.124 27.3368 35.6938 27.2851 36.0046C27.4402 35.5902 27.5436 35.2276 27.5953 34.8131C27.6987 34.8131 27.7504 34.7613 27.8021 34.8131C27.647 35.383 27.7504 36.2118 27.1816 36.6781ZM28.5776 40.1489L28.5259 40.3043L28.4225 40.1489C28.164 39.4755 28.1123 38.7502 28.2157 38.0768C28.3191 38.0768 28.3191 38.1804 28.3708 38.1804C28.3708 38.5948 28.3708 39.0092 28.4742 39.4237C28.5259 39.0092 28.5259 38.5948 28.5776 38.1804C28.6293 38.1804 28.681 38.0768 28.7844 38.0768C28.8879 38.7502 28.7844 39.4755 28.5776 40.1489ZM28.5259 37.0925L28.4742 37.1961L28.3708 37.0925C27.9572 36.5227 28.2157 35.9528 28.164 35.4866C28.2674 35.4866 28.2674 35.5384 28.3191 35.5902C28.3191 35.901 28.3708 36.2636 28.3708 36.5745C28.4225 36.2636 28.4225 35.901 28.4742 35.5902C28.5259 35.5902 28.5776 35.4866 28.681 35.4866C28.7327 36.0046 28.9396 36.5227 28.5259 37.0925ZM28.5259 34.2951L28.4225 34.3469L28.3708 34.2951C27.9572 33.9325 28.2157 33.5698 28.164 33.259C28.2674 33.259 28.2674 33.3108 28.3708 33.3108C28.3708 33.518 28.4225 33.777 28.4742 33.9843C28.5259 33.777 28.5259 33.5698 28.5776 33.3626C28.6293 33.3626 28.681 33.3108 28.7327 33.3108C28.7327 33.6216 28.9396 33.9843 28.5259 34.2951ZM29.3015 34.8649C29.4049 35.2794 29.5083 35.642 29.6634 36.0564C29.6117 35.7456 29.5083 35.1758 29.4566 34.8131C29.56 34.8131 29.56 34.6059 29.6117 34.6577C29.7151 35.383 30.2838 36.2118 29.7668 36.7299C29.1981 36.2118 29.3015 35.383 29.1464 34.8131H29.3532M30.077 39.7345C29.5083 39.2165 29.6117 38.3876 29.4566 37.8178C29.56 37.8178 29.6117 37.8696 29.6634 37.8696C29.7668 38.284 29.8702 38.6466 29.9736 39.061C29.9219 38.7502 29.8185 38.1804 29.7668 37.8178C29.8702 37.8178 29.8185 37.6105 29.9219 37.6623C30.0253 38.3876 30.5941 39.2165 30.077 39.7345ZM30.956 38.1804C30.3872 37.6623 30.4907 36.8335 30.3355 36.2636C30.439 36.2636 30.4907 36.3154 30.5424 36.3154C30.6458 36.7299 30.7492 37.1443 30.9043 37.5069C30.8526 37.1961 30.7492 36.6263 30.6975 36.2636C30.8009 36.2636 30.8009 36.0564 30.8526 36.1082C30.956 36.8335 31.5247 37.6623 30.956 38.1804Z" fill="white"/>
<path fill-rule="evenodd" clip-rule="evenodd" d="M35.6106 43.1517C36.0242 42.6337 35.4038 42.2711 34.8867 42.3229C34.9902 42.0639 35.3004 41.9603 35.5589 42.0639C35.5589 42.0639 35.5589 42.0639 35.6106 42.0639C35.6623 42.0639 35.714 42.1157 35.714 42.1675C35.714 41.0278 34.5765 41.3904 34.2146 42.2711C33.5942 41.6494 33.0771 40.976 32.405 40.4061C32.5601 40.1471 32.7669 39.9917 32.8703 39.7327C32.3533 39.4219 31.9397 38.9038 31.7328 38.334L31.5777 38.7484L30.4403 38.334L30.2852 38.4894C31.009 39.1628 30.9056 40.3025 31.4743 40.976C31.7328 40.976 31.7846 40.6134 32.0431 40.6134C32.5601 41.1314 33.1288 41.5976 33.6459 42.1157C33.6459 42.3229 33.4908 42.4783 33.2839 42.4783C33.1805 42.4783 33.1288 42.4265 33.0254 42.3747C32.7152 42.5301 32.0431 43.0481 32.7152 43.359C32.6635 43.2554 32.7152 43.1517 32.7669 43.0999C33.4391 42.9963 34.3697 42.3747 34.6282 43.4108C34.5765 43.5144 34.5248 43.618 34.3697 43.6698C34.8867 43.877 35.0936 43.0481 34.835 42.7373C35.197 42.7891 35.4038 42.9445 35.6106 43.1517Z" fill="white"/>
<path fill-rule="evenodd" clip-rule="evenodd" d="M25.4744 38.9039L25.2676 38.2305C25.0608 38.8521 24.6472 39.422 24.0784 39.7846C24.2335 40.0436 24.3886 40.199 24.5438 40.458C23.8716 40.9761 23.3546 41.6495 22.6824 42.2712C22.3205 41.3905 21.2347 40.9761 21.183 42.1158C21.3899 41.9085 21.7001 41.9085 21.9069 42.1158C21.9586 42.1676 21.9586 42.1676 22.0103 42.2194C21.4416 42.1676 20.8728 42.5302 21.2347 43.0482C21.3899 42.9446 21.6484 42.6856 21.9069 42.7374C21.6484 43.1 21.8552 43.9289 22.3722 43.6699C22.2688 43.6699 22.2171 43.5663 22.1137 43.4109C22.3722 42.3748 23.3029 42.9964 23.975 43.1C24.0784 43.1518 24.0784 43.2554 24.0267 43.3591C24.6989 43.1 24.0784 42.5302 23.7682 42.3748C23.5614 42.582 23.1995 42.3748 23.1478 42.064C23.6648 41.5459 24.2335 41.0797 24.7506 40.6134C25.0091 40.6134 25.0608 40.9243 25.3193 40.9761C25.9397 40.2508 25.8363 39.0593 26.6119 38.4895L26.5602 38.4377L25.4744 38.9039Z" fill="white"/>
<defs>
<linearGradient id="paint0_linear_3663_662" x1="5.08948" y1="-37.1122" x2="37.0566" y2="51.5075" gradientUnits="userSpaceOnUse">
<stop stop-color="#516DB2"/>
<stop offset="1" stop-color="#263563"/>
</linearGradient>
<linearGradient id="paint1_linear_3663_662" x1="3.73211" y1="27.9924" x2="29.2875" y2="27.9924" gradientUnits="userSpaceOnUse">
<stop stop-color="#F3F3F3"/>
<stop offset="1" stop-color="#ACACAB"/>
</linearGradient>
<linearGradient id="paint2_linear_3663_662" x1="9.06243" y1="-26.1138" x2="36.1982" y2="49.1122" gradientUnits="userSpaceOnUse">
<stop stop-color="#516DB2"/>
<stop offset="1" stop-color="#263563"/>
</linearGradient>
</defs>
</svg>
