<svg width="274" height="193" viewBox="0 0 274 193" fill="none" xmlns="http://www.w3.org/2000/svg">
<path d="M392 192.722C392 297.433 304.989 382.444 197.5 382.444C90.0109 382.444 3 297.433 3 192.722C3 88.0102 90.0109 3 197.5 3C304.989 3 392 88.0102 392 192.722Z" stroke="#CCD4F9" stroke-width="6"/>
<path d="M342.625 192.721C342.625 270.823 277.72 334.262 197.5 334.262C117.28 334.262 52.375 270.823 52.375 192.721C52.375 114.619 117.28 51.1797 197.5 51.1797C277.72 51.1797 342.625 114.619 342.625 192.721Z" stroke="#CCD4F9" stroke-width="6"/>
<path d="M293.25 192.722C293.25 244.215 250.451 286.083 197.5 286.083C144.549 286.083 101.75 244.215 101.75 192.722C101.75 141.229 144.549 99.3613 197.5 99.3613C250.451 99.3613 293.25 141.229 293.25 192.722Z" stroke="#CCD4F9" stroke-width="6"/>
<path d="M243.875 192.721C243.875 217.605 223.182 237.902 197.5 237.902C171.818 237.902 151.125 217.605 151.125 192.721C151.125 167.838 171.818 147.541 197.5 147.541C223.182 147.541 243.875 167.838 243.875 192.721Z" stroke="#CCD4F9" stroke-width="6"/>
</svg>
